<mxfile host="drawio-plugin" modified="2022-06-26T16:55:03.967Z" agent="5.0 (Windows NT 6.2; Win64; x64) AppleWebKit/537.36 (KHTML, like Gecko) Chrome/89.0.4389.114 Safari/537.36" etag="90NVNtwDtwJGX7XQvZi_" version="15.5.4" type="embed" pages="2"><diagram id="s7_xI_XRrdksiuUolE6K" name="Bausteinsicht"><mxGraphModel dx="936" dy="1249" grid="1" gridSize="10" guides="1" tooltips="1" connect="1" arrows="1" fold="1" page="0" pageScale="1" pageWidth="850" pageHeight="1100" math="0" shadow="0"><root><mxCell id="0"/><mxCell id="1" parent="0"/><mxCell id="40" value="&lt;p style=&quot;font-weight: normal ; line-height: 18px&quot;&gt;&lt;span style=&quot;background-color: rgb(255 , 255 , 255)&quot;&gt;&lt;font style=&quot;font-size: 16px&quot;&gt;org.hbrs.academicflow&lt;/font&gt;&lt;/span&gt;&lt;/p&gt;" style="shape=folder;fontStyle=1;tabWidth=250;tabHeight=30;tabPosition=left;html=1;boundedLbl=1;labelInHeader=1;container=1;collapsible=0;recursiveResize=0;fillColor=none;" parent="1" vertex="1"><mxGeometry x="10" y="-170" width="860" height="920" as="geometry"/></mxCell><mxCell id="70" style="edgeStyle=orthogonalEdgeStyle;rounded=0;orthogonalLoop=1;jettySize=auto;html=1;dashed=1;endArrow=open;endFill=0;" parent="40" source="41" target="130" edge="1"><mxGeometry relative="1" as="geometry"><Array as="points"><mxPoint x="840" y="125"/><mxPoint x="840" y="850"/></Array><mxPoint x="400" y="850" as="targetPoint"/></mxGeometry></mxCell><mxCell id="328" style="edgeStyle=orthogonalEdgeStyle;rounded=0;orthogonalLoop=1;jettySize=auto;html=1;entryX=0;entryY=0;entryDx=0;entryDy=20;entryPerimeter=0;endArrow=open;endFill=0;dashed=1;" parent="40" source="41" target="130" edge="1"><mxGeometry relative="1" as="geometry"><Array as="points"><mxPoint x="50" y="125"/><mxPoint x="50" y="830"/></Array></mxGeometry></mxCell><mxCell id="41" value="org.hbrs.academicflow.view" style="shape=folder;fontStyle=1;tabWidth=170;tabHeight=30;tabPosition=left;html=1;boundedLbl=1;labelInHeader=1;container=1;collapsible=0;recursiveResize=0;" parent="40" vertex="1"><mxGeometry x="60" y="50" width="570" height="150" as="geometry"/></mxCell><mxCell id="120" value="&lt;span style=&quot;font-weight: normal&quot;&gt;common&lt;/span&gt;" style="shape=folder;fontStyle=1;tabWidth=90;tabHeight=20;tabPosition=left;html=1;boundedLbl=1;labelInHeader=1;container=1;collapsible=0;recursiveResize=0;" parent="41" vertex="1"><mxGeometry x="10" y="40" width="160" height="90" as="geometry"/></mxCell><mxCell id="121" value="&lt;span style=&quot;font-weight: normal&quot;&gt;components&lt;/span&gt;" style="shape=folder;fontStyle=1;spacingTop=10;tabWidth=40;tabHeight=14;tabPosition=left;html=1;" parent="120" vertex="1"><mxGeometry x="10" y="40" width="70" height="40" as="geometry"/></mxCell><mxCell id="122" value="&lt;span style=&quot;font-weight: normal&quot;&gt;layouts&lt;/span&gt;" style="shape=folder;fontStyle=1;spacingTop=10;tabWidth=40;tabHeight=14;tabPosition=left;html=1;" parent="120" vertex="1"><mxGeometry x="90" y="40" width="60" height="40" as="geometry"/></mxCell><mxCell id="123" value="&lt;span style=&quot;font-weight: normal&quot;&gt;routes&lt;/span&gt;" style="shape=folder;fontStyle=1;tabWidth=90;tabHeight=20;tabPosition=left;html=1;boundedLbl=1;labelInHeader=1;container=1;collapsible=0;recursiveResize=0;" parent="41" vertex="1"><mxGeometry x="210" y="30" width="300" height="110" as="geometry"/></mxCell><mxCell id="124" value="&lt;span style=&quot;font-weight: normal&quot;&gt;profile&lt;/span&gt;" style="shape=folder;fontStyle=1;spacingTop=10;tabWidth=30;tabHeight=10;tabPosition=left;html=1;" parent="123" vertex="1"><mxGeometry x="10" y="30" width="50" height="30" as="geometry"/></mxCell><mxCell id="125" value="&lt;span style=&quot;font-weight: normal&quot;&gt;registration&lt;/span&gt;" style="shape=folder;fontStyle=1;spacingTop=10;tabWidth=30;tabHeight=10;tabPosition=left;html=1;" parent="123" vertex="1"><mxGeometry x="70" y="30" width="70" height="30" as="geometry"/></mxCell><mxCell id="126" value="&lt;span style=&quot;font-weight: normal&quot;&gt;welcome&lt;/span&gt;" style="shape=folder;fontStyle=1;spacingTop=10;tabWidth=30;tabHeight=10;tabPosition=left;html=1;" parent="123" vertex="1"><mxGeometry x="150" y="30" width="60" height="30" as="geometry"/></mxCell><mxCell id="127" value="&lt;span style=&quot;font-weight: normal&quot;&gt;account&lt;/span&gt;" style="shape=folder;fontStyle=1;spacingTop=10;tabWidth=30;tabHeight=10;tabPosition=left;html=1;" parent="123" vertex="1"><mxGeometry x="10" y="70" width="50" height="30" as="geometry"/></mxCell><mxCell id="128" value="&lt;span style=&quot;font-weight: normal&quot;&gt;main&lt;/span&gt;" style="shape=folder;fontStyle=1;spacingTop=10;tabWidth=30;tabHeight=10;tabPosition=left;html=1;" parent="123" vertex="1"><mxGeometry x="70" y="70" width="45" height="30" as="geometry"/></mxCell><mxCell id="129" value="&lt;span style=&quot;font-weight: normal&quot;&gt;backend&lt;/span&gt;" style="shape=folder;fontStyle=1;spacingTop=10;tabWidth=30;tabHeight=10;tabPosition=left;html=1;" parent="123" vertex="1"><mxGeometry x="130" y="70" width="60" height="30" as="geometry"/></mxCell><mxCell id="326" value="&lt;span style=&quot;font-weight: normal&quot;&gt;advertisement&lt;/span&gt;" style="shape=folder;fontStyle=1;spacingTop=10;tabWidth=30;tabHeight=10;tabPosition=left;html=1;" parent="123" vertex="1"><mxGeometry x="210" y="65" width="80" height="40" as="geometry"/></mxCell><mxCell id="Q9tMfbPTtKhhxRTB1rh9-26" value="Infrastructure Layer" style="text;html=1;align=center;verticalAlign=middle;resizable=0;points=[];autosize=1;strokeColor=none;fillColor=none;" parent="40" vertex="1"><mxGeometry y="790" width="120" height="20" as="geometry"/></mxCell><mxCell id="Q9tMfbPTtKhhxRTB1rh9-23" value="Presentation Layer" style="text;html=1;align=center;verticalAlign=middle;resizable=0;points=[];autosize=1;strokeColor=none;fillColor=none;" parent="40" vertex="1"><mxGeometry y="30" width="120" height="20" as="geometry"/></mxCell><mxCell id="Q9tMfbPTtKhhxRTB1rh9-17" value="" style="endArrow=none;html=1;rounded=0;entryX=1;entryY=0.227;entryDx=0;entryDy=0;entryPerimeter=0;" parent="40" target="40" edge="1"><mxGeometry width="50" height="50" relative="1" as="geometry"><mxPoint y="210" as="sourcePoint"/><mxPoint x="850" y="210" as="targetPoint"/></mxGeometry></mxCell><mxCell id="Q9tMfbPTtKhhxRTB1rh9-24" value="Application Layer" style="text;html=1;align=center;verticalAlign=middle;resizable=0;points=[];autosize=1;strokeColor=none;fillColor=none;" parent="40" vertex="1"><mxGeometry y="210" width="110" height="20" as="geometry"/></mxCell><mxCell id="Q9tMfbPTtKhhxRTB1rh9-20" value="" style="endArrow=none;html=1;rounded=0;" parent="40" edge="1"><mxGeometry width="50" height="50" relative="1" as="geometry"><mxPoint y="790" as="sourcePoint"/><mxPoint x="850" y="790" as="targetPoint"/></mxGeometry></mxCell><mxCell id="Q9tMfbPTtKhhxRTB1rh9-25" value="Domain Layer" style="text;html=1;align=center;verticalAlign=middle;resizable=0;points=[];autosize=1;strokeColor=none;fillColor=none;" parent="40" vertex="1"><mxGeometry y="420" width="90" height="20" as="geometry"/></mxCell><mxCell id="36" style="edgeStyle=none;html=1;entryX=0;entryY=0;entryDx=440;entryDy=30;entryPerimeter=0;dashed=1;endArrow=open;endFill=0;" parent="40" source="7" target="9" edge="1"><mxGeometry relative="1" as="geometry"/></mxCell><mxCell id="60" style="rounded=0;orthogonalLoop=1;jettySize=auto;html=1;dashed=1;endArrow=open;endFill=0;entryX=0.399;entryY=0.2;entryDx=0;entryDy=0;entryPerimeter=0;" parent="40" source="41" target="7" edge="1"><mxGeometry relative="1" as="geometry"/></mxCell><mxCell id="Q9tMfbPTtKhhxRTB1rh9-19" value="" style="endArrow=none;html=1;rounded=0;entryX=1;entryY=0.454;entryDx=0;entryDy=0;entryPerimeter=0;" parent="40" target="40" edge="1"><mxGeometry width="50" height="50" relative="1" as="geometry"><mxPoint y="420" as="sourcePoint"/><mxPoint x="850" y="420" as="targetPoint"/></mxGeometry></mxCell><mxCell id="119" style="edgeStyle=orthogonalEdgeStyle;rounded=0;orthogonalLoop=1;jettySize=auto;html=1;dashed=1;endArrow=open;endFill=0;entryX=0.5;entryY=0.29;entryDx=0;entryDy=0;entryPerimeter=0;" parent="40" source="9" target="130" edge="1"><mxGeometry relative="1" as="geometry"><mxPoint x="325" y="810" as="targetPoint"/></mxGeometry></mxCell><mxCell id="9" value="org.hbrs.academciflow.model" style="shape=folder;fontStyle=1;tabWidth=200;tabHeight=30;tabPosition=left;html=1;boundedLbl=1;labelInHeader=1;container=1;collapsible=0;recursiveResize=0;fillColor=none;strokeColor=default;" parent="40" vertex="1"><mxGeometry x="70" y="470" width="700" height="240" as="geometry"/></mxCell><mxCell id="29" value="&lt;span style=&quot;font-weight: normal&quot;&gt;company&lt;/span&gt;" style="shape=folder;fontStyle=1;tabWidth=80;tabHeight=20;tabPosition=left;html=1;boundedLbl=1;labelInHeader=1;container=1;collapsible=0;recursiveResize=0;" parent="9" vertex="1"><mxGeometry x="190" y="130" width="160" height="90" as="geometry"/></mxCell><mxCell id="63" value="&lt;span style=&quot;font-weight: normal&quot;&gt;user&lt;/span&gt;" style="shape=folder;fontStyle=1;spacingTop=10;tabWidth=40;tabHeight=14;tabPosition=left;html=1;" parent="29" vertex="1"><mxGeometry x="10" y="30" width="60" height="40" as="geometry"/></mxCell><mxCell id="62" value="&lt;span style=&quot;font-weight: normal&quot;&gt;profile&lt;/span&gt;" style="shape=folder;fontStyle=1;spacingTop=10;tabWidth=40;tabHeight=14;tabPosition=left;html=1;" parent="29" vertex="1"><mxGeometry x="80" y="30" width="60" height="40" as="geometry"/></mxCell><mxCell id="a3gd4VNlWAVU1A-3oR4Q-358" value="&lt;span style=&quot;font-weight: normal&quot;&gt;apply&lt;/span&gt;" style="shape=folder;fontStyle=1;spacingTop=10;tabWidth=40;tabHeight=14;tabPosition=left;html=1;" vertex="1" parent="9"><mxGeometry x="27.5" y="150" width="95" height="40" as="geometry"/></mxCell><mxCell id="a3gd4VNlWAVU1A-3oR4Q-359" value="&lt;span style=&quot;font-weight: normal&quot;&gt;permission&lt;/span&gt;" style="shape=folder;fontStyle=1;spacingTop=10;tabWidth=40;tabHeight=14;tabPosition=left;html=1;" vertex="1" parent="9"><mxGeometry x="590" y="65" width="95" height="40" as="geometry"/></mxCell><mxCell id="a3gd4VNlWAVU1A-3oR4Q-360" value="&lt;span style=&quot;font-weight: normal&quot;&gt;common&lt;/span&gt;" style="shape=folder;fontStyle=1;spacingTop=10;tabWidth=40;tabHeight=14;tabPosition=left;html=1;" vertex="1" parent="9"><mxGeometry x="27.5" y="65" width="95" height="40" as="geometry"/></mxCell><mxCell id="a3gd4VNlWAVU1A-3oR4Q-361" value="&lt;span style=&quot;font-weight: 400&quot;&gt;user&lt;/span&gt;" style="shape=folder;fontStyle=1;spacingTop=10;tabWidth=40;tabHeight=14;tabPosition=left;html=1;" vertex="1" parent="9"><mxGeometry x="160" y="65" width="95" height="40" as="geometry"/></mxCell><mxCell id="a3gd4VNlWAVU1A-3oR4Q-362" value="&lt;span style=&quot;font-weight: 400&quot;&gt;rating&lt;/span&gt;" style="shape=folder;fontStyle=1;spacingTop=10;tabWidth=40;tabHeight=14;tabPosition=left;html=1;" vertex="1" parent="9"><mxGeometry x="580" y="150" width="95" height="40" as="geometry"/></mxCell><mxCell id="a3gd4VNlWAVU1A-3oR4Q-363" value="&lt;span style=&quot;font-weight: 400&quot;&gt;location&lt;/span&gt;" style="shape=folder;fontStyle=1;spacingTop=10;tabWidth=40;tabHeight=14;tabPosition=left;html=1;" vertex="1" parent="9"><mxGeometry x="450" y="65" width="95" height="40" as="geometry"/></mxCell><mxCell id="a3gd4VNlWAVU1A-3oR4Q-365" value="&lt;span style=&quot;font-weight: 400&quot;&gt;advertisement&lt;/span&gt;" style="shape=folder;fontStyle=1;spacingTop=10;tabWidth=40;tabHeight=14;tabPosition=left;html=1;" vertex="1" parent="9"><mxGeometry x="310" y="65" width="95" height="40" as="geometry"/></mxCell><mxCell id="a3gd4VNlWAVU1A-3oR4Q-366" value="&lt;span style=&quot;font-weight: normal&quot;&gt;student&lt;/span&gt;" style="shape=folder;fontStyle=1;tabWidth=80;tabHeight=20;tabPosition=left;html=1;boundedLbl=1;labelInHeader=1;container=1;collapsible=0;recursiveResize=0;" vertex="1" parent="9"><mxGeometry x="380" y="130" width="160" height="90" as="geometry"/></mxCell><mxCell id="a3gd4VNlWAVU1A-3oR4Q-367" value="&lt;span style=&quot;font-weight: normal&quot;&gt;user&lt;/span&gt;" style="shape=folder;fontStyle=1;spacingTop=10;tabWidth=40;tabHeight=14;tabPosition=left;html=1;" vertex="1" parent="a3gd4VNlWAVU1A-3oR4Q-366"><mxGeometry x="10" y="30" width="60" height="40" as="geometry"/></mxCell><mxCell id="a3gd4VNlWAVU1A-3oR4Q-368" value="&lt;span style=&quot;font-weight: normal&quot;&gt;profile&lt;/span&gt;" style="shape=folder;fontStyle=1;spacingTop=10;tabWidth=40;tabHeight=14;tabPosition=left;html=1;" vertex="1" parent="a3gd4VNlWAVU1A-3oR4Q-366"><mxGeometry x="80" y="30" width="60" height="40" as="geometry"/></mxCell><mxCell id="7" value="org.hbrs.academicflow.control" style="shape=folder;fontStyle=1;tabWidth=190;tabHeight=30;tabPosition=left;html=1;boundedLbl=1;labelInHeader=1;container=1;collapsible=0;recursiveResize=0;" parent="40" vertex="1"><mxGeometry x="70" y="240" width="750" height="160" as="geometry"/></mxCell><mxCell id="72" value="&lt;span style=&quot;font-weight: normal&quot;&gt;exception&lt;/span&gt;" style="shape=folder;fontStyle=1;spacingTop=10;tabWidth=40;tabHeight=14;tabPosition=left;html=1;" parent="7" vertex="1"><mxGeometry x="20" y="105" width="95" height="40" as="geometry"/></mxCell><mxCell id="75" value="&lt;span style=&quot;font-weight: normal&quot;&gt;permission&lt;/span&gt;" style="shape=folder;fontStyle=1;spacingTop=10;tabWidth=40;tabHeight=14;tabPosition=left;html=1;" parent="7" vertex="1"><mxGeometry x="20" y="45" width="95" height="40" as="geometry"/></mxCell><mxCell id="76" value="&lt;span style=&quot;font-weight: normal&quot;&gt;student&lt;/span&gt;" style="shape=folder;fontStyle=1;spacingTop=10;tabWidth=40;tabHeight=14;tabPosition=left;html=1;" parent="7" vertex="1"><mxGeometry x="150" y="45" width="95" height="40" as="geometry"/></mxCell><mxCell id="77" value="&lt;span style=&quot;font-weight: 400&quot;&gt;user&lt;/span&gt;" style="shape=folder;fontStyle=1;spacingTop=10;tabWidth=40;tabHeight=14;tabPosition=left;html=1;" parent="7" vertex="1"><mxGeometry x="140" y="105" width="95" height="40" as="geometry"/></mxCell><mxCell id="78" value="&lt;span style=&quot;font-weight: 400&quot;&gt;advertisement&lt;/span&gt;" style="shape=folder;fontStyle=1;spacingTop=10;tabWidth=40;tabHeight=14;tabPosition=left;html=1;" parent="7" vertex="1"><mxGeometry x="270" y="45" width="95" height="40" as="geometry"/></mxCell><mxCell id="114" value="AuthorizationService" style="html=1;" parent="7" vertex="1"><mxGeometry x="260" y="105" width="130" height="40" as="geometry"/></mxCell><mxCell id="115" value="LoginService" style="html=1;" parent="7" vertex="1"><mxGeometry x="410" y="45" width="90" height="40" as="geometry"/></mxCell><mxCell id="116" value="UserValidation" style="html=1;" parent="7" vertex="1"><mxGeometry x="410" y="102.5" width="90" height="40" as="geometry"/></mxCell><mxCell id="oHdbIqz4qrL_fv-Hm5hM-326" value="&lt;span style=&quot;font-weight: 400&quot;&gt;location&lt;/span&gt;" style="shape=folder;fontStyle=1;spacingTop=10;tabWidth=40;tabHeight=14;tabPosition=left;html=1;" parent="7" vertex="1"><mxGeometry x="520" y="45" width="95" height="40" as="geometry"/></mxCell><mxCell id="355" value="&lt;span style=&quot;font-weight: normal&quot;&gt;company&lt;/span&gt;" style="shape=folder;fontStyle=1;spacingTop=10;tabWidth=40;tabHeight=14;tabPosition=left;html=1;" vertex="1" parent="7"><mxGeometry x="525" y="102.5" width="110" height="45" as="geometry"/></mxCell><mxCell id="356" value="&lt;span style=&quot;font-weight: 400&quot;&gt;rating&lt;/span&gt;" style="shape=folder;fontStyle=1;spacingTop=10;tabWidth=40;tabHeight=14;tabPosition=left;html=1;" vertex="1" parent="7"><mxGeometry x="635" y="45" width="95" height="40" as="geometry"/></mxCell><mxCell id="a3gd4VNlWAVU1A-3oR4Q-364" value="&lt;span style=&quot;font-weight: normal&quot;&gt;apply&lt;/span&gt;" style="shape=folder;fontStyle=1;spacingTop=10;tabWidth=40;tabHeight=14;tabPosition=left;html=1;" vertex="1" parent="7"><mxGeometry x="645" y="107.5" width="95" height="40" as="geometry"/></mxCell><mxCell id="130" value="org.hbrs.academicflow.util" style="shape=folder;fontStyle=1;tabWidth=170;tabHeight=30;tabPosition=left;html=1;boundedLbl=1;labelInHeader=1;container=1;collapsible=0;recursiveResize=0;" parent="40" vertex="1"><mxGeometry x="100" y="810" width="430" height="100" as="geometry"/></mxCell><mxCell id="131" value="Constants" style="html=1;" parent="130" vertex="1"><mxGeometry x="10" y="40" width="70" height="30" as="geometry"/></mxCell><mxCell id="134" value="Encryption" style="html=1;" parent="130" vertex="1"><mxGeometry x="100" y="40" width="70" height="30" as="geometry"/></mxCell><mxCell id="206" value="SessionAttributes" style="html=1;" parent="130" vertex="1"><mxGeometry x="200" y="40" width="100" height="30" as="geometry"/></mxCell><mxCell id="325" value="Statistics" style="html=1;" parent="130" vertex="1"><mxGeometry x="320" y="40" width="100" height="30" as="geometry"/></mxCell><mxCell id="45" value="&lt;span style=&quot;color: rgba(0 , 0 , 0 , 0) ; font-family: monospace ; font-size: 0px ; background-color: rgb(248 , 249 , 250)&quot;&gt;%3CmxGraphModel%3E%3Croot%3E%3CmxCell%20id%3D%220%22%2F%3E%3CmxCell%20id%3D%221%22%20parent%3D%220%22%2F%3E%3CmxCell%20id%3D%222%22%20value%3D%22permission%22%20style%3D%22shape%3Dfolder%3BfontStyle%3D1%3BtabWidth%3D110%3BtabHeight%3D30%3BtabPosition%3Dleft%3Bhtml%3D1%3BboundedLbl%3D1%3BlabelInHeader%3D1%3Bcontainer%3D1%3Bcollapsible%3D0%3BrecursiveResize%3D0%3B%22%20vertex%3D%221%22%20parent%3D%221%22%3E%3CmxGeometry%20x%3D%2240%22%20y%3D%22340%22%20width%3D%22150%22%20height%3D%22100%22%20as%3D%22geometry%22%2F%3E%3C%2FmxCell%3E%3CmxCell%20id%3D%223%22%20value%3D%22dto%22%20style%3D%22html%3D1%3B%22%20vertex%3D%221%22%20parent%3D%222%22%3E%3CmxGeometry%20width%3D%22110%22%20height%3D%2230%22%20relative%3D%221%22%20as%3D%22geometry%22%3E%3CmxPoint%20x%3D%2220%22%20y%3D%2250%22%20as%3D%22offset%22%2F%3E%3C%2FmxGeometry%3E%3C%2FmxCell%3E%3C%2Froot%3E%3C%2FmxGraphModel%3E&lt;/span&gt;" style="text;html=1;align=center;verticalAlign=middle;resizable=0;points=[];autosize=1;strokeColor=none;fillColor=none;" parent="1" vertex="1"><mxGeometry x="330" y="-200" width="20" height="20" as="geometry"/></mxCell></root></mxGraphModel></diagram><diagram id="FLhjbLpfInkHy99Y6Dtj" name="Kontextsicht"><mxGraphModel dx="1165" dy="722" grid="1" gridSize="10" guides="1" tooltips="1" connect="1" arrows="1" fold="1" page="1" pageScale="1" pageWidth="850" pageHeight="1100" math="0" shadow="0"><root><mxCell id="iyt9JdFaRfXhYVzZwj77-0"/><mxCell id="iyt9JdFaRfXhYVzZwj77-1" parent="iyt9JdFaRfXhYVzZwj77-0"/><mxCell id="6b6AJchpUDiPEE1SOJ1V-6" style="rounded=0;orthogonalLoop=1;jettySize=auto;html=1;fontSize=17;entryX=0.551;entryY=0.242;entryDx=0;entryDy=0;entryPerimeter=0;endArrow=open;endFill=0;" parent="iyt9JdFaRfXhYVzZwj77-1" source="6b6AJchpUDiPEE1SOJ1V-0" target="6b6AJchpUDiPEE1SOJ1V-5" edge="1"><mxGeometry relative="1" as="geometry"/></mxCell><mxCell id="6b6AJchpUDiPEE1SOJ1V-0" value="&lt;font style=&quot;font-size: 17px ; line-height: 1.8&quot;&gt;Academic Flow&lt;/font&gt;" style="shape=folder;fontStyle=1;spacingTop=10;tabWidth=70;tabHeight=30;tabPosition=left;html=1;align=center;fillColor=#f5f5f5;fontColor=#333333;strokeColor=#666666;" parent="iyt9JdFaRfXhYVzZwj77-1" vertex="1"><mxGeometry x="380" y="260" width="230" height="120" as="geometry"/></mxCell><mxCell id="6b6AJchpUDiPEE1SOJ1V-7" style="edgeStyle=none;rounded=0;orthogonalLoop=1;jettySize=auto;html=1;fontSize=17;endArrow=none;endFill=0;" parent="iyt9JdFaRfXhYVzZwj77-1" source="6b6AJchpUDiPEE1SOJ1V-1" target="6b6AJchpUDiPEE1SOJ1V-0" edge="1"><mxGeometry relative="1" as="geometry"/></mxCell><mxCell id="6b6AJchpUDiPEE1SOJ1V-1" value="Student" style="shape=umlActor;verticalLabelPosition=bottom;verticalAlign=top;html=1;fontSize=17;" parent="iyt9JdFaRfXhYVzZwj77-1" vertex="1"><mxGeometry x="230" y="130" width="30" height="60" as="geometry"/></mxCell><mxCell id="6b6AJchpUDiPEE1SOJ1V-8" style="edgeStyle=none;rounded=0;orthogonalLoop=1;jettySize=auto;html=1;fontSize=17;endArrow=none;endFill=0;" parent="iyt9JdFaRfXhYVzZwj77-1" source="6b6AJchpUDiPEE1SOJ1V-4" target="6b6AJchpUDiPEE1SOJ1V-0" edge="1"><mxGeometry relative="1" as="geometry"/></mxCell><mxCell id="6b6AJchpUDiPEE1SOJ1V-4" value="Unternehmen" style="shape=umlActor;verticalLabelPosition=bottom;verticalAlign=top;html=1;fontSize=17;" parent="iyt9JdFaRfXhYVzZwj77-1" vertex="1"><mxGeometry x="180" y="260" width="30" height="60" as="geometry"/></mxCell><mxCell id="6b6AJchpUDiPEE1SOJ1V-5" value="&lt;font style=&quot;font-size: 17px ; line-height: 1.8&quot;&gt;Datenbank&lt;/font&gt;" style="shape=folder;fontStyle=1;spacingTop=10;tabWidth=70;tabHeight=30;tabPosition=left;html=1;align=center;" parent="iyt9JdFaRfXhYVzZwj77-1" vertex="1"><mxGeometry x="200" y="480" width="230" height="120" as="geometry"/></mxCell><mxCell id="6b6AJchpUDiPEE1SOJ1V-9" value="Bewerbungen" style="text;html=1;align=center;verticalAlign=middle;resizable=0;points=[];autosize=1;strokeColor=none;fillColor=none;fontSize=17;" parent="iyt9JdFaRfXhYVzZwj77-1" vertex="1"><mxGeometry x="280" y="400" width="120" height="30" as="geometry"/></mxCell><mxCell id="6b6AJchpUDiPEE1SOJ1V-10" style="rounded=0;orthogonalLoop=1;jettySize=auto;html=1;fontSize=17;endArrow=open;endFill=0;entryX=1.004;entryY=0.531;entryDx=0;entryDy=0;entryPerimeter=0;" parent="iyt9JdFaRfXhYVzZwj77-1" source="6b6AJchpUDiPEE1SOJ1V-0" target="6b6AJchpUDiPEE1SOJ1V-5" edge="1"><mxGeometry relative="1" as="geometry"><mxPoint x="451.59225560727896" y="390" as="sourcePoint"/><mxPoint x="440" y="530" as="targetPoint"/></mxGeometry></mxCell><mxCell id="6b6AJchpUDiPEE1SOJ1V-11" value="Stellenanzeigen" style="text;html=1;align=center;verticalAlign=middle;resizable=0;points=[];autosize=1;strokeColor=none;fillColor=none;fontSize=17;" parent="iyt9JdFaRfXhYVzZwj77-1" vertex="1"><mxGeometry x="450" y="470" width="140" height="30" as="geometry"/></mxCell><mxCell id="UeeB_2PP7dZfTvPGfv_--0" style="edgeStyle=none;rounded=0;orthogonalLoop=1;jettySize=auto;html=1;fontFamily=Helvetica;fontSize=8;fontColor=#000000;endArrow=none;endFill=0;" parent="iyt9JdFaRfXhYVzZwj77-1" source="6b6AJchpUDiPEE1SOJ1V-12" target="6b6AJchpUDiPEE1SOJ1V-5" edge="1"><mxGeometry relative="1" as="geometry"/></mxCell><mxCell id="6b6AJchpUDiPEE1SOJ1V-12" value="DB-Admin Barum-Maier" style="shape=umlActor;verticalLabelPosition=bottom;verticalAlign=top;html=1;fontSize=17;" parent="iyt9JdFaRfXhYVzZwj77-1" vertex="1"><mxGeometry x="570" y="620" width="30" height="60" as="geometry"/></mxCell><mxCell id="6b6AJchpUDiPEE1SOJ1V-14" style="edgeStyle=none;rounded=0;orthogonalLoop=1;jettySize=auto;html=1;fontFamily=Helvetica;fontSize=8;fontColor=#000000;endArrow=none;endFill=0;dashed=1;" parent="iyt9JdFaRfXhYVzZwj77-1" source="6b6AJchpUDiPEE1SOJ1V-13" target="6b6AJchpUDiPEE1SOJ1V-5" edge="1"><mxGeometry relative="1" as="geometry"/></mxCell><mxCell id="6b6AJchpUDiPEE1SOJ1V-13" value="&lt;font style=&quot;font-size: 10px&quot;&gt;URL:&amp;nbsp;&lt;span style=&quot;background-color: rgb(255 , 255 , 255)&quot;&gt;jdbc:postgresql://dumbo.inf.h-brs.de:5432/kgolub2s&lt;/span&gt;&lt;/font&gt;" style="html=1;fontSize=17;align=center;" parent="iyt9JdFaRfXhYVzZwj77-1" vertex="1"><mxGeometry x="90" y="720" width="270" height="30" as="geometry"/></mxCell></root></mxGraphModel></diagram></mxfile>